Coordinates
version=1
nRows=49
nColumns=12
inDegrees=yes

Units are S.I. units (second, meters, Newtons, ...)
Angles are in degrees

endheader
time	SC_y	SC_z	SC_x	AC_y	AC_z	AC_x	GH_y	GH_z	GH_yy	EL_x	PS_y
       0.0              -43.22          15.44          55.12          66.99          6.635           14.4         -135.5          80.08         -160.2          107.5          6.461
   0.03454              -43.22          15.44          55.11          66.98          6.633           14.4         -135.5          80.08         -160.2          107.5          6.464
   0.06908              -43.22          15.44          55.11          66.98           6.63           14.4         -135.5          80.08         -160.1          107.5          6.466
    0.1036              -43.22          15.45          55.11          66.98          6.627           14.4         -135.5          80.08         -160.1          107.5          6.469
    0.1382              -43.22          15.45           55.1          66.97          6.624           14.4         -135.5          80.08         -160.0          107.5          6.471
    0.1727              -43.22          15.45           55.1          66.97          6.621           14.4         -135.5          80.07         -160.0          107.5          6.474
    0.2072              -43.23          15.45          55.09          66.96          6.617           14.4         -135.5          80.07         -159.9          107.5          6.477
    0.2418              -43.23          15.45          55.09          66.96          6.614           14.4         -135.5          80.07         -159.8          107.5          6.481
    0.2763              -43.23          15.45          55.08          66.95           6.61           14.4         -135.5          80.07         -159.8          107.5          6.484
    0.3109              -43.23          15.45          55.07          66.95          6.605          14.41         -135.5          80.06         -159.7          107.5          6.488
    0.3454              -43.23          15.45          55.07          66.94          6.601          14.41         -135.4          80.06         -159.6          107.5          6.492
    0.3799              -43.23          15.45          55.06          66.93          6.596          14.41         -135.4          80.06         -159.5          107.5          6.497
    0.4145              -43.24          15.45          55.05          66.93          6.591          14.41         -135.4          80.05         -159.4          107.5          6.501
     0.449              -43.24          15.45          55.04          66.92          6.585          14.41         -135.4          80.05         -159.3          107.5          6.507
    0.4835              -43.24          15.46          55.03          66.91          6.579          14.41         -135.4          80.04         -159.2          107.5          6.512
    0.5181              -43.24          15.46          55.02           66.9          6.572          14.42         -135.4          80.04         -159.1          107.5          6.518
    0.5526              -43.24          15.46          55.01          66.89          6.564          14.42         -135.3          80.03         -159.0          107.4          6.525
    0.5872              -43.25          15.46           55.0          66.88          6.556          14.42         -135.3          80.03         -158.8          107.4          6.532
    0.6217              -43.25          15.46          54.99          66.87          6.548          14.42         -135.3          80.02         -158.7          107.4           6.54
    0.6562              -43.25          15.46          54.97          66.85          6.538          14.43         -135.3          80.02         -158.5          107.4          6.548
    0.6908              -43.26          15.47          54.96          66.84          6.528          14.43         -135.2          80.01         -158.3          107.4          6.558
    0.7253              -43.26          15.47          54.94          66.82          6.516          14.43         -135.2           80.0         -158.1          107.4          6.568
    0.7599              -43.27          15.47          54.92          66.81          6.503          14.44         -135.2          79.99         -157.9          107.4          6.579
    0.7944              -43.27          15.48           54.9          66.79          6.489          14.44         -135.1          79.98         -157.6          107.3          6.592
    0.8289              -43.28          15.48          54.88          66.76          6.474          14.45         -135.1          79.97         -157.3          107.3          6.606
    0.8635              -43.28          15.48          54.85          66.74          6.456          14.45         -135.1          79.96         -157.0          107.3          6.622
     0.898              -43.29          15.49          54.83          66.71          6.436          14.46         -135.0          79.94         -156.7          107.3          6.639
    0.9326               -43.3          15.49          54.79          66.68          6.414          14.47         -134.9          79.93         -156.3          107.2          6.659
    0.9671              -43.31           15.5          54.76          66.65          6.389          14.47         -134.9          79.91         -155.8          107.2          6.681
     1.002              -43.32           15.5          54.72          66.61          6.361          14.48         -134.8          79.89         -155.3          107.1          6.707
     1.036              -43.33          15.51          54.67          66.56          6.329          14.49         -134.7          79.87         -154.7          107.1          6.736
     1.071              -43.34          15.52          54.61          66.51          6.291           14.5         -134.6          79.84         -154.1          107.0          6.769
     1.105              -43.36          15.53          54.55          66.45          6.249          14.52         -134.5          79.81         -153.3          107.0          6.807
      1.14              -43.38          15.54          54.48          66.38          6.199          14.53         -134.4          79.78         -152.4          106.9          6.852
     1.174               -43.4          15.55          54.39           66.3           6.14          14.55         -134.2          79.73         -151.4          106.8          6.904
     1.209              -43.42          15.57          54.29          66.21          6.072          14.57         -134.0          79.69         -150.2          106.7          6.965
     1.243              -43.45          15.59          54.17          66.09           5.99           14.6         -133.8          79.63         -148.7          106.6          7.038
     1.278              -43.49          15.61          54.03          65.96          5.892          14.63         -133.6          79.56         -146.9          106.5          7.126
     1.312              -43.53          15.64          53.86          65.79          5.774          14.66         -133.3          79.48         -144.8          106.3          7.232
     1.347              -43.58          15.67          53.64          65.59          5.629          14.71         -132.9          79.37         -142.2          106.1          7.361
     1.382              -43.65          15.71          53.38          65.35           5.45          14.77         -132.4          79.25         -139.1          105.8          7.521
     1.416              -43.73          15.76          53.06          65.04          5.228          14.83         -131.8          79.09         -135.1          105.5           7.72
     1.451              -43.83          15.82          52.64          64.65          4.947          14.92         -131.1          78.89         -130.1          105.1          7.971
     1.485              -43.96           15.9          52.12          64.15          4.591          15.03         -130.1          78.64         -123.7          104.5           8.29
      1.52              -44.12           16.0          51.45          63.52          4.134          15.18         -128.9          78.32         -115.5          103.9          8.698
     1.554              -44.33          16.13           50.6          62.71          3.549          15.36         -127.4           77.9         -105.1          103.0          9.222
     1.589               -44.6           16.3           49.5          61.67          2.801          15.59         -125.4          77.38         -91.71          101.9           9.89
     1.623              -44.94          16.51          48.12          60.37           1.86          15.88         -122.9          76.71          -74.9          100.5          10.73
     1.658              -45.36          16.77          46.44          58.78         0.7137          16.24         -119.9           75.9         -54.41          98.87          11.76
